<?xml version="1.0" encoding="UTF-8"?>
<svg id="Warstwa_2" data-name="Warstwa 2" xmlns="http://www.w3.org/2000/svg" viewBox="0 0 709.13 713.2">
  <defs>
    <style>
      .cls-1, .cls-2, .cls-3 {
        fill: #fff;
      }

      .cls-2 {
        font-size: 17px;
        letter-spacing: .2em;
      }

      .cls-2, .cls-3 {
        font-family: Nasalization, Nasalization;
      }

      .cls-3 {
        font-size: 36px;
      }

      .cls-4 {
        letter-spacing: .07em;
      }

      .cls-5 {
        letter-spacing: .06em;
      }

      .cls-6 {
        letter-spacing: .08em;
      }
    </style>
  </defs>
  <path class="cls-1" d="m211.34,490.48v-.14s0,.06,0,.06c-.01.02-.02.06-.04.1-.04.06-.11.12-.2.17-.19.09-.48.14-.85.12-.75-.04-1.73-.35-2.78-.94-2.2-1.22-4.79-3.84-7.67-7.11-2.85-3.17-5.59-6.26-8.12-9.41-2.57-3.18-4.75-6.26-7-9.93-2.27-3.62-4.6-7.59-7.57-11.35-1.48-1.88-3.13-3.7-4.97-5.33-1.85-1.64-3.89-3.03-5.98-4.17-4.2-2.3-8.61-3.57-12.95-4.42-4.35-.85-8.67-1.24-12.98-1.63,4.07,1.46,8.15,2.93,11.96,4.76,3.81,1.81,7.37,3.98,10.18,6.66,5.74,5.24,7.75,12.62,10.35,20.95.65,2.09,1.36,4.26,2.19,6.46.82,2.2,1.73,4.34,2.67,6.45,1.89,4.21,3.95,8.24,5.97,12.14,1,1.92,2.05,3.96,3.39,6.16,1.34,2.18,2.94,4.5,5.03,6.77,2.13,2.31,4.69,4.49,7.84,6.27,3.13,1.77,6.98,3.16,11.33,3.47l.21-26.13Z"/>
  <path class="cls-1" d="m211.37,516.6c4.34-.36,8.18-1.78,11.29-3.59,3.13-1.81,5.67-4.02,7.78-6.35,2.06-2.29,3.64-4.63,4.96-6.82,1.31-2.21,2.35-4.26,3.33-6.19,1.98-3.92,4-7.97,5.85-12.2.92-2.12,1.8-4.27,2.6-6.48.81-2.21,1.49-4.39,2.13-6.49,2.51-8.36,4.45-15.76,10.14-21.06,2.79-2.71,6.33-4.92,10.12-6.77,3.79-1.87,7.85-3.38,11.91-4.88-4.3.43-8.62.87-12.96,1.77-4.33.89-8.74,2.21-12.91,4.55-2.08,1.16-4.11,2.57-5.94,4.23-1.83,1.65-3.46,3.49-4.92,5.38-2.93,3.8-5.22,7.78-7.45,11.43-2.22,3.69-4.36,6.79-6.9,10-2.49,3.18-5.21,6.29-8.02,9.49-2.85,3.29-5.41,5.95-7.6,7.18-1.04.6-2.02.91-2.77.96-.37.02-.66-.02-.85-.11-.09-.05-.16-.11-.2-.17-.02-.03-.03-.07-.04-.1v-.06s0,.14,0,.14l.47,26.12Z"/>
  <path class="cls-1" d="m194.96,500.15l.09,2.42.99,1.26.72,1.8-.81.27c-1.06-1.15-3.62-3.73-4.76-4.85-1.47-.35-4.5-.78-6.02-.9,0,0-5.93-3.41-5.93-3.41l-.72,2.42,1.89,4.04,3.32,4.58,4.76,3.5,6.55,1.71,4.22,11.04,1.08,10.5.45,3.14,3.14,5.48,1.89,2.51,2.51,2.33,2.33.99v-50.36l-6.37-1.17-1.26-.81-2.87.54-3.86,1.53-1.35,1.44Z"/>
  <path class="cls-1" d="m226.38,500.14l-.09,2.42-.99,1.26-.72,1.8.81.27c1.06-1.15,3.62-3.73,4.76-4.85,1.47-.35,4.5-.78,6.02-.9,0,0,5.93-3.41,5.93-3.41l.72,2.42-1.89,4.04-3.32,4.58-4.76,3.5-6.55,1.71-4.22,11.04-1.08,10.5-.45,3.14-3.14,5.48-1.89,2.51-2.51,2.33-2.33.99v-50.36s6.37-1.17,6.37-1.17l1.26-.81,2.87.54,3.86,1.53,1.35,1.44Z"/>
  <rect class="cls-1" x="208.05" y="494.45" width="5.17" height="53.14" transform="translate(421.27 1042.05) rotate(180)"/>
  <text class="cls-3" transform="translate(266.67 514.93)"><tspan class="cls-6" x="0" y="0">MUSCLE IMPO</tspan><tspan class="cls-5" x="289.82" y="0">R</tspan><tspan class="cls-4" x="314.49" y="0">TS</tspan></text>
  <text class="cls-2" transform="translate(383.03 536.34)"><tspan x="0" y="0">SINCE 1993</tspan></text>
</svg>